<?xml version="1.0" encoding="UTF-8"?>
<svg width="145px" height="203px" viewBox="0 0 145 203" version="1.1" xmlns="http://www.w3.org/2000/svg" xmlns:xlink="http://www.w3.org/1999/xlink">
    <!-- Generator: Sketch 56.2 (81672) - https://sketch.com -->
    <title>Nickelfox Black logo@1x Copy 6</title>
    <desc>Created with Sketch.</desc>
    <g id="Page-1" stroke="none" stroke-width="1" fill="none" fill-rule="evenodd">
        <g id="Desktop-HD" transform="translate(-151.000000, -562.000000)" fill="#333333" fill-rule="nonzero">
            <g id="Nickelfox-Black-logo@1x-Copy-6" transform="translate(151.000000, 562.000000)">
                <g id="Fox">
                    <polygon id="Shape-path" fill-opacity="0.15" points="82.23 184.98 76.23 181.55 100.96 55.96 142.37 103.52"></polygon>
                    <path d="M144.84,0.6 C144.812141,68.7346 144.762141,103.051267 144.69,103.55 C144.602466,104.273365 144.330425,104.962077 143.9,105.55 L72.7799988,202.241943 L1.6,105.55 C1.1695754,104.962077 0.89753426,104.273365 0.81,103.55 C0.755416541,102.945427 0.732083208,102.582094 0.74,102.46 L0.74,0.6 L45.74,51.48 L100.04,51.39 L144.84,0.6 Z M81.23,183.98 L140.37,103.52 L100.96,57.96 L78.23,180.55 L81.23,183.98 Z M64.34,183.98 L67.32,180.59 L44.59,57.99 L5.18,103.55 L64.34,183.98 Z" id="Combined-Shape"></path>
                    <polygon id="_Path_40" points="116.94 105.47 96.98 128.42 93.78 114.34"></polygon>
                </g>
            </g>
        </g>
    </g>
</svg>