<svg xmlns="http://www.w3.org/2000/svg" width="84" height="25" viewBox="0 0 84 25">
    <g fill="#000" fill-rule="evenodd">
        <path fill-rule="nonzero" stroke="#000" stroke-width="2.5" d="M81.807 23.167h-6.3l-.202.196H82v-6.83l-.193.22zM2.193 2.196h6.3L8.694 2H2v6.83l.193-.219z"/>
        <path d="M10.472 7.505c1.173 0 2.088.29 2.744.87.657.58.985 1.409.985 2.487 0 1.079-.328 1.908-.985 2.488-.656.58-1.57.87-2.744.87h-1.76v3.837H6.806V7.505h3.665zm0 5.04c.587 0 1.03-.157 1.328-.471.299-.315.448-.718.448-1.212 0-.493-.15-.9-.448-1.22-.299-.319-.741-.479-1.328-.479h-1.76v3.382h1.76zm8.357-2.601c.523 0 1.013.084 1.472.252.459.168.854.425 1.185.772.736.759 1.104 1.81 1.104 3.154 0 1.323-.368 2.364-1.104 3.122-.662.694-1.548 1.041-2.657 1.041-1.11 0-2.006-.347-2.689-1.04-.736-.749-1.104-1.79-1.104-3.123 0-1.355.368-2.406 1.104-3.154.672-.683 1.569-1.024 2.689-1.024zm1.872 4.162c0-.835-.16-1.46-.48-1.878-.32-.417-.765-.626-1.336-.626-.57 0-1.038.209-1.4.626-.363.417-.545 1.043-.545 1.878s.163 1.46.489 1.878c.325.418.77.626 1.336.626.565 0 1.03-.208 1.392-.626.363-.417.544-1.043.544-1.878zm4.436-3.951l1.569 5.642 1.488-5.203h1.713l1.488 5.22 1.584-5.659h1.889l-2.56 7.902H30.45l-1.44-4.731-1.409 4.731H25.73l-2.577-7.902h1.984zm16.488.943c.266.347.466.748.6 1.203.133.456.2.873.2 1.252 0 .38-.022.721-.064 1.025h-5.025c.02.64.176 1.16.464 1.56.288.402.725.602 1.312.602.779 0 1.243-.347 1.392-1.04h1.905c-.128.791-.486 1.414-1.073 1.87-.608.477-1.35.715-2.224.715-1.024 0-1.883-.38-2.577-1.138-.715-.792-1.072-1.805-1.072-3.04 0-1.27.357-2.288 1.072-3.058.683-.737 1.542-1.105 2.577-1.105 1.078 0 1.915.384 2.513 1.154zm-2.497.374c-.534 0-.95.176-1.248.529-.3.352-.475.804-.528 1.357h3.312c0-.856-.266-1.43-.8-1.723a1.543 1.543 0 0 0-.736-.163zm7.06.244c.47-1.138 1.174-1.707 2.113-1.707.182 0 .411.038.688.113l-.032 1.92a4.13 4.13 0 0 0-.88-.098c-1.259 0-1.888.883-1.888 2.65v3.463H44.3V10.14h1.889v1.577zm9.814-.618c.267.347.467.748.6 1.203.134.456.2.873.2 1.252 0 .38-.02.721-.064 1.025h-5.025c.021.64.176 1.16.464 1.56.288.402.726.602 1.313.602.778 0 1.243-.347 1.392-1.04h1.904c-.128.791-.485 1.414-1.072 1.87-.608.477-1.35.715-2.224.715-1.025 0-1.884-.38-2.577-1.138-.715-.792-1.072-1.805-1.072-3.04 0-1.27.357-2.288 1.072-3.058.683-.737 1.542-1.105 2.577-1.105 1.077 0 1.915.384 2.512 1.154zm-2.496.374c-.534 0-.95.176-1.249.529-.298.352-.475.804-.528 1.357h3.313c0-.856-.267-1.43-.8-1.723a1.543 1.543 0 0 0-.736-.163zm10.245 5.366c-.48.965-1.216 1.447-2.208 1.447-.993 0-1.825-.385-2.497-1.154-.694-.803-1.04-1.822-1.04-3.057 0-1.236.33-2.239.992-3.008.65-.748 1.462-1.122 2.433-1.122.97 0 1.701.395 2.192 1.187V6.903h1.905v11.154h-1.553l-.224-1.22zm-1.968-5.17c-.534 0-.98.219-1.337.658-.357.439-.536 1.027-.536 1.764 0 .737.182 1.33.544 1.78.363.45.822.675 1.377.675.458 0 .87-.184 1.232-.553.373-.38.56-.856.56-1.43v-1.025c-.021-.564-.208-1.024-.56-1.382-.32-.325-.747-.488-1.28-.488zm15.238 6.39h-2.368l-2.737-3.74-2.432 3.74h-2.305l3.665-5.253-3.681-5.3h2.32l2.625 3.804 2.273-3.804h2.288l-3.504 5.268 3.856 5.284z"/>
    </g>
</svg>
