<svg width="500" height="185" viewBox="0 0 500 185" fill="none" xmlns="http://www.w3.org/2000/svg">
<g clip-path="url(#clip0_1352_616)">
<path d="M71.6463 129.248C71.1683 128.446 70.6761 127.667 70.2129 126.865C63.1614 114.664 56.0735 102.477 49.0956 90.2245C48.7792 89.507 48.2416 88.9095 47.5616 88.5192C46.8817 88.1289 46.0948 87.9662 45.3159 88.0548C42.0291 88.1946 38.7423 88.0916 35.132 88.0916C34.7791 95.027 35.0144 101.83 34.9776 108.618C34.9409 115.407 34.9776 122.276 34.9776 129.211H0.00716639V0.969136C0.793931 0.910299 1.52209 0.807312 2.25739 0.807312C19.228 0.807312 36.198 0.74112 53.176 0.807312C61.9908 0.669351 70.7195 2.55642 78.6905 6.32326C84.8493 8.99909 90.2319 13.1889 94.3379 18.5032C98.4439 23.8175 101.141 30.0839 102.176 36.7198C103.895 44.8547 103.083 53.321 99.8499 60.9808C96.6163 68.6406 91.1154 75.1268 84.0876 79.5676L82.2494 80.8327L109.051 127.262L109.521 127.152V1.27803C111.551 0.660242 197.308 0.432263 202.066 0.947084C202.712 10.7819 202.805 20.6452 202.345 30.4905C192.786 30.667 183.227 30.5493 173.617 30.5714C164.007 30.5934 154.558 30.5714 144.853 30.5714V50.2375C153.433 50.2375 162.007 50.2375 170.588 50.2375H196.367C197.008 60.134 197.094 70.0587 196.625 79.9648C188.088 80.0236 179.5 79.9648 170.889 79.9648H145.154C144.516 86.46 144.447 92.9987 144.948 99.5059H205.441V129.248H71.6463ZM35.0952 58.1143C42.1834 58.1143 48.9264 58.2687 55.6838 58.0334C58.3677 57.8141 61.0105 57.2404 63.5439 56.3271C65.8993 55.5552 67.9054 53.9736 69.2058 51.8629C70.3013 50.1795 70.9989 48.2687 71.2469 46.2755C71.4948 44.2822 71.2862 42.2586 70.6365 40.358C69.9868 38.4574 68.9139 36.7295 67.4977 35.3054C66.0815 33.8812 64.3599 32.798 62.4632 32.1379C59.2476 31.0884 55.8814 30.5716 52.4992 30.6081C47.3521 30.6081 42.2053 30.6081 37.0582 30.6081C36.4108 30.6389 35.7658 30.7027 35.1248 30.7994L35.0952 58.1143Z" fill="black"/>
<path d="M346.426 30.5491V50.2006H398.015C398.605 60.1114 398.676 70.0463 398.227 79.9646H346.757C346.158 86.4968 346.105 93.0675 346.595 99.6087H407.087V125.004C408.095 122.974 413.794 82.2592 416.264 62.6372C418.882 41.8899 421.889 21.194 424.764 0.21875L459.705 4.99925C455.235 37.6904 450.801 70.1683 446.323 102.904L500 110.258L495.978 139.743L407.743 127.681L406.933 129.299H311.418V0.976306H403.963V30.5491H346.426Z" fill="black"/>
<path d="M206.647 129.424V1.0059C207.456 0.939706 208.184 0.829372 208.912 0.829372C225.882 0.829372 242.852 0.770536 259.823 0.829372C267.111 0.748155 274.348 2.05608 281.147 4.68319C285.441 6.43159 289.324 9.05535 292.549 12.3874C295.773 15.7194 298.269 19.6866 299.876 24.0363C301.484 28.386 302.168 33.023 301.885 37.6518C301.603 42.2806 300.36 46.7997 298.235 50.9215C296.254 54.7506 293.475 58.111 290.088 60.7767C290.771 61.1664 291.309 61.5121 291.867 61.7769C297.232 64.1628 301.793 68.0498 305 72.9693C308.207 77.8888 309.923 83.6309 309.941 89.5037C310.202 93.8103 309.769 98.1309 308.661 102.301C307.535 106.649 305.515 110.714 302.73 114.237C299.945 117.76 296.455 120.663 292.485 122.761C286.061 126.189 279 128.257 271.742 128.836C267.632 129.241 263.485 129.38 259.36 129.395C242.808 129.454 226.272 129.395 209.713 129.395L206.647 129.424ZM241.779 99.2706C242.176 99.4471 242.323 99.5795 242.47 99.5795C250.647 99.5795 258.831 99.6751 267.007 99.4545C269.105 99.2868 271.142 98.6671 272.978 97.6379C274.679 96.8469 276.104 95.5632 277.067 93.9529C278.031 92.3426 278.489 90.48 278.382 88.6064C278.368 86.7356 277.815 84.9087 276.79 83.3437C275.765 81.7787 274.311 80.5419 272.603 79.7809C270.084 78.5666 267.309 77.9835 264.515 78.082C257.681 78.082 250.847 78.082 244.014 78.082C243.279 78.082 242.544 78.1997 241.809 78.2659L241.779 99.2706ZM241.846 48.0238C242.2 48.1365 242.564 48.2153 242.933 48.2591C248.757 48.2591 254.58 48.3842 260.397 48.1783C262.496 48.0646 264.554 47.5529 266.462 46.6706C267.832 46.0747 268.988 45.0758 269.776 43.8066C270.564 42.5374 270.948 41.0583 270.875 39.566C270.96 38.0362 270.589 36.5155 269.81 35.196C269.032 33.8765 267.879 32.8175 266.499 32.1526C264.451 31.111 262.179 30.5906 259.882 30.6375C254.397 30.6375 248.919 30.6375 243.433 30.6375C242.948 30.6375 242.456 30.7331 241.846 30.792V48.0238Z" fill="black"/>
<path d="M123.485 183.135V145.744H151.757V155.158H135.485V160.946H148.426V169.985H135.485V183.127L123.485 183.135Z" fill="black"/>
<path d="M170.316 164.476C170.172 161.845 170.559 159.212 171.455 156.734C172.35 154.256 173.736 151.984 175.529 150.054C177.413 148.25 179.647 146.85 182.093 145.942C184.538 145.034 187.144 144.636 189.749 144.773C192.349 144.636 194.949 145.033 197.389 145.942C199.829 146.85 202.056 148.25 203.933 150.054C205.722 151.986 207.105 154.259 207.998 156.737C208.891 159.214 209.277 161.846 209.132 164.476C209.274 167.102 208.886 169.73 207.993 172.204C207.1 174.677 205.72 176.946 203.933 178.876C202.059 180.685 199.832 182.089 197.392 183C194.952 183.911 192.35 184.31 189.749 184.172C187.142 184.31 184.535 183.912 182.089 183.001C179.643 182.09 177.41 180.686 175.529 178.876C173.739 176.948 172.355 174.68 171.459 172.206C170.564 169.732 170.175 167.103 170.316 164.476ZM182.419 164.476C182.213 167.191 182.83 169.906 184.19 172.265C184.835 173.111 185.682 173.782 186.653 174.216C187.624 174.65 188.689 174.834 189.749 174.75C190.801 174.834 191.856 174.651 192.819 174.219C193.781 173.787 194.62 173.12 195.257 172.279C196.604 169.91 197.213 167.193 197.007 164.476C197.216 161.749 196.606 159.022 195.257 156.643C194.621 155.801 193.783 155.132 192.821 154.698C191.858 154.265 190.801 154.082 189.749 154.165C188.689 154.082 187.624 154.266 186.653 154.7C185.682 155.134 184.836 155.805 184.19 156.651C182.829 159.02 182.212 161.744 182.419 164.469" fill="black"/>
<path d="M228.617 164.476C228.473 161.845 228.86 159.212 229.756 156.734C230.651 154.257 232.038 151.985 233.831 150.054C235.716 148.25 237.949 146.851 240.395 145.943C242.84 145.034 245.446 144.637 248.051 144.773C250.652 144.635 253.254 145.032 255.695 145.941C258.136 146.849 260.365 148.249 262.243 150.054C264.031 151.987 265.412 154.26 266.305 156.737C267.198 159.215 267.584 161.847 267.441 164.476C267.581 167.102 267.194 169.73 266.301 172.203C265.408 174.677 264.028 176.946 262.243 178.877C260.367 180.686 258.139 182.09 255.698 183.001C253.256 183.912 250.653 184.311 248.051 184.172C245.445 184.31 242.837 183.912 240.391 183.001C237.945 182.09 235.712 180.686 233.831 178.877C232.04 176.949 230.656 174.681 229.76 172.207C228.865 169.733 228.475 167.104 228.617 164.476ZM240.721 164.476C240.517 167.193 241.136 169.907 242.5 172.265C243.143 173.111 243.989 173.781 244.959 174.216C245.929 174.65 246.992 174.834 248.051 174.751C249.103 174.836 250.159 174.653 251.122 174.221C252.084 173.79 252.923 173.122 253.559 172.28C254.906 169.911 255.515 167.194 255.308 164.476C255.518 161.749 254.909 159.022 253.559 156.644C252.923 155.8 252.085 155.131 251.123 154.698C250.16 154.265 249.103 154.081 248.051 154.165C246.992 154.083 245.929 154.267 244.959 154.701C243.989 155.136 243.144 155.806 242.5 156.651C241.135 159.019 240.516 161.743 240.721 164.469" fill="black"/>
<path d="M288.544 183.135V145.744H303.058C305.812 145.682 308.567 145.847 311.294 146.237C312.943 146.515 314.534 147.07 316 147.877C318.558 149.368 320.596 151.609 321.837 154.298C323.231 157.505 323.899 160.981 323.793 164.476C323.918 168.182 323.085 171.858 321.374 175.148C319.767 178.023 317.255 180.286 314.228 181.583C312.768 182.206 311.224 182.607 309.647 182.775C306.715 183.061 303.769 183.179 300.823 183.128L288.544 183.135ZM300.543 173.67H303.772C304.893 173.796 306.028 173.682 307.102 173.336C308.176 172.99 309.163 172.419 309.999 171.662C311.373 169.535 311.986 167.004 311.735 164.484C311.969 161.963 311.342 159.438 309.955 157.32C309.165 156.548 308.215 155.959 307.172 155.595C306.129 155.232 305.017 155.103 303.918 155.217H300.543V173.67Z" fill="black"/>
<path d="M343.11 171.485H354.787C354.979 172.651 355.603 173.702 356.536 174.427C357.678 175.095 358.995 175.405 360.316 175.317C361.465 175.372 362.607 175.118 363.624 174.581C363.991 174.395 364.299 174.109 364.512 173.757C364.725 173.405 364.835 173 364.83 172.588C364.83 171.235 363.149 170.134 359.786 169.286L358.242 168.904C355.478 168.193 353.272 167.545 351.624 166.962C350.375 166.557 349.179 166.007 348.058 165.322C346.696 164.379 345.585 163.116 344.823 161.645C344.081 160.11 343.711 158.422 343.742 156.717C343.676 155.031 344.024 153.353 344.754 151.832C345.485 150.31 346.577 148.991 347.934 147.987C351.324 145.698 355.371 144.584 359.455 144.817C363.461 144.595 367.435 145.659 370.794 147.855C372.165 148.87 373.294 150.176 374.102 151.678C374.909 153.181 375.373 154.844 375.462 156.548H364.066C364.005 156.058 363.843 155.585 363.59 155.161C363.337 154.737 362.998 154.37 362.595 154.084C361.581 153.484 360.411 153.202 359.235 153.275C358.238 153.206 357.242 153.426 356.367 153.908C356.061 154.123 355.814 154.413 355.651 154.75C355.488 155.087 355.412 155.46 355.433 155.835C355.433 157.075 357.075 158.107 360.36 158.931C360.646 159.019 360.867 159.078 361.021 159.107L363.176 159.644C366.145 160.233 369.014 161.24 371.698 162.638C373.201 163.571 374.449 164.862 375.33 166.396C376.127 167.932 376.521 169.645 376.477 171.375C376.577 173.192 376.236 175.007 375.483 176.664C374.73 178.321 373.588 179.772 372.154 180.892C368.499 183.332 364.142 184.501 359.756 184.216C355.575 184.438 351.439 183.269 347.992 180.892C346.547 179.779 345.362 178.365 344.517 176.748C343.673 175.132 343.19 173.351 343.102 171.529" fill="black"/>
</g>
<defs>
<clipPath id="clip0_1352_616">
<rect width="500" height="183.953" fill="white" transform="translate(0 0.21875)"/>
</clipPath>
</defs>
</svg>
