<svg width="287" height="63" viewBox="0 0 287 63" fill="none" xmlns="http://www.w3.org/2000/svg">
<path d="M21.296 63C12.9771 63 5.49018 58.8112 0.498872 54.4548C-0.000258885 54.1197 -0.000258885 53.4495 0.332495 52.9468L5.98931 44.5692C6.48844 43.8989 7.32032 43.8989 7.81945 44.4016C12.1452 48.4229 18.3012 51.1037 22.627 51.1037C27.2855 51.1037 30.7795 48.9255 30.7795 44.7367C30.7795 40.5479 26.2873 39.0399 23.6252 38.0346C20.9632 37.0293 16.471 35.5213 14.3081 34.516C12.8108 33.8457 9.6496 32.6729 7.15394 30.1596C4.49192 27.6463 2.32902 24.1277 2.32902 18.4309C2.32902 12.5665 5.15742 7.875 8.65134 5.0266C11.9789 2.01064 17.6357 0 24.6235 0C31.2786 0 38.9319 3.01596 43.2577 6.86968C43.7568 7.20479 43.7568 7.875 43.4241 8.37766L38.5992 16.2527C38.2664 16.9229 37.4345 17.0904 36.769 16.5878C33.2751 13.5718 28.4502 11.3936 24.2908 11.3936C19.6322 11.3936 16.3047 13.2367 16.3047 16.9229C16.3047 20.609 19.7986 22.117 22.4606 23.1223C25.1226 24.1277 29.6148 25.8032 31.6113 26.641C39.431 29.4894 44.9215 34.516 44.9215 43.3963C44.9215 56.633 33.1087 63 21.296 63Z" fill="#1AC1B1"/>
<path d="M74.2032 39.375H67.8809C67.2154 39.375 66.7162 39.8776 66.7162 40.5478V60.8218C66.7162 61.492 66.2171 61.9946 65.5516 61.9946H53.7389C53.0733 61.9946 52.5742 61.492 52.5742 60.8218V1.84304C52.5742 1.17283 53.0733 0.670166 53.7389 0.670166H74.3696C86.6815 0.670166 96.4977 6.36697 96.4977 19.9388C96.4977 33.6781 86.6815 39.375 74.2032 39.375ZM72.2067 11.7287H67.8809C67.2154 11.7287 66.7162 12.2313 66.7162 12.9016V26.976C66.7162 27.6462 67.2154 28.1489 67.8809 28.1489H72.2067C77.6971 28.1489 82.0229 26.1383 82.0229 19.9388C82.0229 13.7393 77.6971 11.7287 72.2067 11.7287Z" fill="#1AC1B1"/>
<path d="M154.897 60.3192L132.935 1.34045C132.769 0.837792 132.27 0.502686 131.771 0.502686H118.627C118.128 0.502686 117.629 0.837792 117.462 1.34045L95.5006 60.3192C95.1678 61.1569 95.8333 61.9947 96.6652 61.9947H121.955C121.622 61.6596 121.455 61.1569 121.289 60.8218C120.623 59.1463 121.123 57.3032 122.454 56.1303C122.786 55.7952 123.286 55.4601 123.951 55.2926C124.45 55.125 124.783 54.9575 125.282 54.9575C125.615 54.9575 125.948 54.9575 126.28 54.9575C126.779 55.125 127.279 55.2926 127.611 55.4601C128.11 55.7952 128.443 56.1303 128.776 56.4655C128.942 56.633 129.109 56.8006 129.109 57.1357C129.275 57.3032 129.275 57.4708 129.441 57.8059C129.774 58.6436 129.774 59.4814 129.608 60.1516C129.441 60.8218 129.109 61.4921 128.776 61.9947H153.899C154.564 61.9947 155.23 61.1569 154.897 60.3192ZM142.752 50.4335L138.759 51.9415L129.608 26.641L133.601 25.133L142.752 50.4335ZM131.771 19.7713L133.268 23.7926L129.275 25.3006L127.778 21.2793L131.771 19.7713ZM126.447 21.7819L127.944 25.8032L117.629 29.4894L116.131 25.4681L126.447 21.7819ZM123.286 53.7846C122.62 54.1197 121.955 54.4548 121.455 54.9575L117.629 44.4016L110.807 46.9149L109.643 43.7314L120.124 39.8777L125.116 53.6171C124.45 53.4495 123.951 53.617 123.286 53.7846ZM129.441 55.2926C129.109 54.9575 128.61 54.6224 128.11 54.2873C127.611 53.9522 126.946 53.7846 126.28 53.6171L118.128 30.8298L128.443 27.1436L137.594 52.4442L129.441 55.2926ZM130.939 60.4867C131.105 59.4814 131.105 58.3085 130.772 57.3032C130.606 56.9681 130.606 56.8006 130.44 56.4655L144.582 51.2713L145.913 54.9575L130.939 60.4867Z" fill="black"/>
<path d="M191.999 61.3244L179.854 39.2074C179.687 38.8723 179.188 38.5372 178.855 38.5372H176.193C175.528 38.5372 175.029 39.0399 175.029 39.7101V60.8218C175.029 61.492 174.53 61.9946 173.864 61.9946H162.051C161.386 61.9946 160.887 61.492 160.887 60.8218V1.84304C160.887 1.17283 161.386 0.670166 162.051 0.670166H182.682C194.328 0.670166 205.476 5.69676 205.476 19.101C205.476 29.6569 199.32 34.3484 194.828 36.1914C194.162 36.5266 193.829 37.3643 194.328 37.867L207.805 60.1516C208.304 60.9893 207.639 61.9946 206.807 61.9946H192.997C192.498 61.9946 192.166 61.8271 191.999 61.3244ZM180.519 11.7287H176.027C175.362 11.7287 174.862 12.2313 174.862 12.9016V26.1383C174.862 26.8085 175.362 27.3111 176.027 27.3111H180.519C185.843 27.3111 191.001 25.6356 191.001 19.4361C191.001 13.2367 185.843 11.7287 180.519 11.7287Z" fill="#1AC1B1"/>
<path d="M247.568 61.3244L233.426 37.6994C233.093 37.0292 232.095 36.8617 231.43 37.5319L227.936 41.3856C227.769 41.5532 227.603 41.8883 227.603 42.2234V60.6542C227.603 61.3244 227.104 61.8271 226.438 61.8271H214.626C213.96 61.8271 213.461 61.3244 213.461 60.6542V1.84304C213.461 1.17283 213.96 0.670166 214.626 0.670166H226.438C227.104 0.670166 227.603 1.17283 227.603 1.84304V19.7712C227.603 20.9441 228.934 21.4468 229.766 20.609L246.237 1.17283C246.404 0.837719 246.736 0.670166 247.235 0.670166H260.878C261.877 0.670166 262.542 1.84304 261.71 2.6808L242.577 24.4627C242.244 24.7978 242.244 25.468 242.41 25.9707L263.707 60.1516C264.206 60.9893 263.707 61.9946 262.708 61.9946H248.4C248.234 61.9946 247.735 61.8271 247.568 61.3244Z" fill="#1AC1B1"/>
<path d="M277.849 61.9947C282.995 61.9947 287.166 57.7938 287.166 52.6117C287.166 47.4297 282.995 43.2288 277.849 43.2288C272.704 43.2288 268.532 47.4297 268.532 52.6117C268.532 57.7938 272.704 61.9947 277.849 61.9947Z" fill="#FFC549"/>
</svg>
