<svg xmlns="http://www.w3.org/2000/svg" width="134" height="38" viewBox="0 0 134 38">
    <g fill="#FFF" fill-rule="evenodd">
        <path fill-rule="nonzero" stroke="#FFF" stroke-width="2.5" d="M131.686 36.299H121.45l-.33.317H132V25.55l-.314.354zM2.314 2.317H12.55L12.88 2H2v11.066l.314-.354z"/>
        <path d="M15.767 10.92c1.907 0 3.393.47 4.46 1.41 1.066.939 1.6 2.283 1.6 4.03 0 1.748-.534 3.092-1.6 4.031-1.067.94-2.553 1.41-4.46 1.41h-2.861v6.218H9.81v-17.1h5.956zm0 8.167c.953 0 1.673-.255 2.158-.764.486-.51.728-1.164.728-1.963 0-.799-.242-1.458-.728-1.976-.485-.518-1.205-.777-2.158-.777h-2.861v5.48h2.86zm13.58-4.215c.85 0 1.647.136 2.393.408.745.272 1.387.69 1.924 1.251 1.196 1.23 1.794 2.934 1.794 5.112 0 2.143-.598 3.829-1.794 5.058-1.075 1.125-2.514 1.687-4.317 1.687-1.803 0-3.26-.562-4.37-1.687-1.195-1.211-1.794-2.898-1.794-5.058 0-2.196.599-3.9 1.795-5.112 1.092-1.106 2.548-1.66 4.369-1.66zm3.043 6.744c0-1.352-.26-2.366-.78-3.043-.52-.676-1.244-1.014-2.172-1.014-.928 0-1.686.338-2.276 1.014-.59.677-.884 1.691-.884 3.043 0 1.353.265 2.367.793 3.044.53.676 1.253 1.014 2.172 1.014.919 0 1.673-.338 2.262-1.014.59-.677.885-1.691.885-3.044zm7.208-6.402l2.549 9.143 2.419-8.432h2.782l2.419 8.458 2.575-9.169h3.068L51.25 28.02h-3.017l-2.341-7.667-2.289 7.667h-3.042l-4.187-12.805h3.224zm26.792 1.528c.433.562.758 1.212.975 1.95.217.738.325 1.414.325 2.029 0 .614-.034 1.168-.104 1.66H59.42c.035 1.036.286 1.879.754 2.529.469.65 1.18.975 2.133.975 1.266 0 2.02-.562 2.262-1.687h3.095c-.208 1.283-.789 2.293-1.742 3.03-.988.773-2.193 1.16-3.615 1.16-1.664 0-3.06-.615-4.187-1.845-1.162-1.282-1.743-2.924-1.743-4.927 0-2.055.581-3.706 1.743-4.953 1.11-1.194 2.505-1.791 4.187-1.791 1.751 0 3.112.623 4.083 1.87zm-4.057.606c-.867 0-1.543.286-2.029.857-.485.57-.771 1.304-.858 2.2h5.384c0-1.388-.434-2.319-1.3-2.793-.33-.176-.729-.264-1.197-.264zm11.474.395c.763-1.844 1.907-2.766 3.433-2.766.294 0 .667.061 1.118.184l-.052 3.11a6.73 6.73 0 0 0-1.43-.159c-2.046 0-3.07 1.432-3.07 4.295v5.612h-3.068V15.188h3.069v2.555zm15.947-1c.433.561.758 1.211.975 1.949.217.738.325 1.414.325 2.029 0 .614-.035 1.168-.104 1.66h-8.166c.035 1.036.286 1.879.754 2.529.468.65 1.179.975 2.133.975 1.265 0 2.02-.562 2.262-1.687h3.095c-.208 1.283-.789 2.293-1.743 3.03-.988.773-2.193 1.16-3.614 1.16-1.665 0-3.06-.615-4.187-1.845-1.162-1.282-1.743-2.924-1.743-4.927 0-2.055.58-3.706 1.743-4.953 1.11-1.194 2.505-1.791 4.187-1.791 1.75 0 3.112.623 4.083 1.87zm-4.057.605c-.867 0-1.543.286-2.029.857-.485.57-.771 1.304-.858 2.2h5.383c0-1.388-.433-2.319-1.3-2.793-.33-.176-.728-.264-1.196-.264zm16.649 8.695c-.78 1.563-1.977 2.345-3.59 2.345-1.612 0-2.964-.624-4.056-1.871-1.127-1.3-1.69-2.95-1.69-4.953s.537-3.627 1.612-4.874c1.057-1.212 2.375-1.818 3.953-1.818 1.577 0 2.765.64 3.563 1.923v-6.85h3.094v18.074h-2.522l-.364-1.976zm-3.2-8.379c-.866 0-1.59.356-2.17 1.067-.582.712-.872 1.665-.872 2.86 0 1.194.295 2.155.884 2.884.59.73 1.335 1.094 2.237 1.094.745 0 1.413-.299 2.002-.896.607-.615.91-1.388.91-2.319v-1.66c-.034-.913-.338-1.66-.91-2.24-.52-.526-1.213-.79-2.08-.79zM123.91 28.02h-3.85l-4.446-6.06-3.953 6.06h-3.745l5.955-8.51-5.981-8.59h3.77l4.266 6.166 3.693-6.165h3.719l-5.696 8.536 6.268 8.563z"/>
    </g>
</svg>
